PathFileType	4	(X/Y/Z)	C:/Users/opensim2020/Desktop/walking_exp_matlab/subject02_walking05_straight_04.trc																																																																																																																												
DataRate	CameraRate	NumFrames	NumMarkers	Units	OrigDataRate	OrigDataStartFrame	OrigNumFrames																																																																																																																								
100	100	4	42	mm	100	2763	220																																																																																																																								
Frame#	Time	LFHD			RFHD			LBHD			RBHD			C7			T10			CLAV			STRN			RBAK			LSHO			LUPA			LELB			LFRM			LWRA			LWRB			LFIN			RSHO			RUPA			RELB			RFRM			RWRA			RWRB			RFIN			LASI			RASI			LPSI			RPSI			LTHI			LKNE			LTIB			LANK			LHEE			LTOE			RTHI			RKNE			RTIB			RANK			RHEE			RTOE			*39			*40			*41		
		X1	Y1	Z1	X2	Y2	Z2	X3	Y3	Z3	X4	Y4	Z4	X5	Y5	Z5	X6	Y6	Z6	X7	Y7	Z7	X8	Y8	Z8	X9	Y9	Z9	X10	Y10	Z10	X11	Y11	Z11	X12	Y12	Z12	X13	Y13	Z13	X14	Y14	Z14	X15	Y15	Z15	X16	Y16	Z16	X17	Y17	Z17	X18	Y18	Z18	X19	Y19	Z19	X20	Y20	Z20	X21	Y21	Z21	X22	Y22	Z22	X23	Y23	Z23	X24	Y24	Z24	X25	Y25	Z25	X26	Y26	Z26	X27	Y27	Z27	X28	Y28	Z28	X29	Y29	Z29	X30	Y30	Z30	X31	Y31	Z31	X32	Y32	Z32	X33	Y33	Z33	X34	Y34	Z34	X35	Y35	Z35	X36	Y36	Z36	X37	Y37	Z37	X38	Y38	Z38	X39	Y39	Z39	X40	Y40	Z40	X41	Y41	Z41	X42	Y42	Z42
																																																																																																																															
28	0.27	-806.31793	1735.05981	-1512.34033	-822.83234	1711.59351	-1371.31067	-938.03943	1665.81079	-1537.16455	-966.57288	1642.271	-1398.65076	-1005.92322	1523.0437	-1471.38306	-1062.3468	1247.37573	-1460.66174	-867.04681	1451.84949	-1477.43701	-818.31976	1280.6123	-1468.65991	-1069.68384	1347.82861	-1409.23706	-926.48486	1499.69702	-1646.55005	-883.98877	1316.87329	-1751.25916	-829.31482	1191.15125	-1788.08069	-750.84186	1085.12085	-1810.11536	-638.77917	1007.42999	-1784.29553	-677.97913	987.32867	-1819.91235	-625.55804	949.11432	-1830.94958	-938.724	1485.67371	-1283.01318	-984.57629	1298.66833	-1201.21716	-975.18866	1152.07141	-1179.98901	-948.46533	1033.97949	-1161.21936	-902.3587	907.16644	-1181.52283	-947.59845	904.07825	-1147.55566	-910.84369	840.64349	-1147.19873	-838.51563	982.58685	-1598.57971	-822.7002	975.92426	-1342.60364	-1043.28137	1029.6925	-1504.4624	-1042.57935	1028.2074	-1390.69897	-946.74194	676.10541	-1635.48022	-1012.0144	481.45624	-1600.19421	-1096.94653	304.89832	-1594.24805	-1121.40137	82.05944	-1554.00208	-1156.3728	57.01661	-1500.62097	-968.94281	37.05824	-1578.60498	-826.64728	679.95483	-1256.43506	-753.87238	485.10037	-1292.25916	-758.29303	298.15933	-1283.24817	-733.88269	106.02228	-1313.62476	-748.37561	45.95494	-1373.46619	-578.06982	78.12122	-1286.73486	-914.64227	1801.63794	-1430.87634	-2845.19995	1033.88074	3360.30176	NaN	NaN	NaN
29	0.28	-796.86542	1733.93738	-1512.52856	-813.59491	1710.19189	-1371.24731	-928.40735	1664.63342	-1537.35034	-957.19952	1641.01331	-1398.94739	-996.44714	1521.90833	-1471.85986	-1053.22241	1246.33667	-1461.11755	-857.5271	1450.41687	-1477.32825	-809.37183	1279.31946	-1468.93835	-1060.65271	1346.85559	-1410.06543	-916.52216	1498.54395	-1646.56799	-873.64368	1316.25354	-1751.77075	-818.25616	1190.96948	-1789.06897	-738.22437	1085.88098	-1810.92126	-624.8479	1010.27777	-1785.40735	-663.76483	989.08459	-1820.36523	-610.91754	952.10486	-1831.93274	-929.91687	1484.45776	-1283.49707	-977.25464	1297.88379	-1201.66357	-969.14758	1151.0094	-1180.62708	-944.00336	1032.70654	-1161.66797	-899.12317	905.28839	-1181.73657	-944.87329	902.82788	-1147.76086	-908.66534	838.89423	-1147.31287	-830.1806	981.14868	-1598.8667	-814.23566	974.54224	-1343.24963	-1034.64038	1028.83069	-1504.57495	-1033.7605	1027.19336	-1390.70435	-941.26031	675.18091	-1635.58972	-1008.21185	481.27576	-1600.20325	-1094.75525	305.59354	-1594.14319	-1121.13342	82.8099	-1554.05347	-1156.18066	57.90193	-1500.55237	-969.03168	37.1853	-1578.82629	-819.82166	677.70349	-1257.63086	-745.80157	483.573	-1294.78418	-742.05884	296.80545	-1284.66406	-709.64508	105.41827	-1314.49963	-722.85327	44.84182	-1373.98523	-552.21509	83.94188	-1290.4137	-905.1861	1800.44312	-1430.9967	-2845.20459	1033.64307	3360.28882	NaN	NaN	NaN
30	0.29	-787.19403	1732.66479	-1512.39954	-804.14642	1709.10559	-1371.31824	-918.73981	1663.38	-1537.44995	-947.73065	1639.7179	-1399.05042	-986.87408	1520.71985	-1472.13818	-1044.0011	1245.29736	-1461.30334	-848.08966	1449.19971	-1477.5802	-800.03717	1277.69482	-1468.69873	-1051.47119	1345.74023	-1410.6521	-906.80579	1497.5752	-1646.91296	-863.40125	1315.47925	-1752.13831	-807.32861	1190.38171	-1789.69702	-725.97083	1086.24451	-1811.40649	-611.45117	1012.71637	-1786.15576	-650.1983	990.61053	-1820.80554	-596.77588	954.67944	-1832.63806	-920.651	1482.98242	-1283.47473	-969.21869	1296.73853	-1201.7865	-962.81207	1149.94763	-1181.09937	-938.75793	1031.34155	-1162.01892	-895.6355	903.30383	-1181.88257	-941.68732	901.62604	-1148.19104	-906.22015	837.19574	-1147.35168	-821.71344	979.64935	-1599.15369	-805.29114	973.01068	-1343.6604	-1025.88171	1027.88916	-1504.48682	-1024.34351	1025.99146	-1390.51453	-935.95166	674.72278	-1636.04089	-1004.26428	481.17877	-1600.22253	-1092.73096	306.4212	-1594.03943	-1121.07043	83.88805	-1554.29175	-1155.91187	58.91761	-1500.41992	-969.00287	37.15521	-1578.98047	-813.08905	675.37616	-1258.85486	-737.94403	482.01871	-1297.22766	-726.64081	295.76682	-1286.29028	-686.40582	105.36269	-1315.41138	-697.96887	43.89054	-1374.31006	-527.61499	89.94772	-1294.07971	-895.62579	1799.07861	-1430.94763	-2845.85376	1033.97913	3357.30884	NaN	NaN	NaN
31	0.3	-777.38867	1731.34277	-1511.97009	-794.65912	1707.63782	-1370.95398	-908.99121	1662.11804	-1537.40027	-938.21069	1638.44397	-1399.05176	-977.18616	1519.47705	-1472.22717	-1034.73438	1244.203	-1461.44946	-838.47925	1447.78015	-1477.42944	-790.74927	1276.21472	-1468.61707	-1042.08154	1344.55811	-1410.98962	-896.70764	1496.15393	-1646.60901	-853.36603	1314.52051	-1752.35876	-796.86279	1189.73132	-1790.2959	-714.11829	1086.40198	-1811.75659	-598.57745	1014.47894	-1786.40784	-637.16156	991.9176	-1821.15393	-583.30969	956.94324	-1833.1925	-911.53149	1481.57556	-1283.64099	-961.50702	1295.63782	-1202.05627	-956.44489	1148.9364	-1181.37854	-933.84985	1030.41614	-1161.9668	-891.81073	901.51849	-1181.3689	-937.95959	900.33038	-1148.05762	-903.4447	835.55731	-1147.56482	-813.11316	978.0882	-1599.41028	-796.10162	971.27631	-1343.82922	-1017.01453	1026.93823	-1504.21204	-1015.05353	1024.78479	-1390.14099	-930.45593	674.06146	-1636.1615	-1000.07062	480.97672	-1599.98792	-1090.27307	307.16696	-1593.64551	-1120.72449	84.77425	-1554.27332	-1155.65552	60.06075	-1500.38037	-968.94922	37.11095	-1579.10364	-806.36682	673.05731	-1259.91235	-730.19159	480.50867	-1299.61865	-712.01044	295.01227	-1287.93274	-664.37073	105.69962	-1316.55518	-674.53516	43.84253	-1374.84766	-504.47028	95.84747	-1297.52759	-886.05469	1797.81812	-1430.8075	-2845.25391	1033.80945	3360.21582	-848.95721	1757.68701	-1522.85706
